<?xml version="1.0" encoding="UTF-8"?>
<svg xmlns="http://www.w3.org/2000/svg" viewBox="0 0 200 180" width="200" shape-rendering="crispEdges" role="img" aria-label="sleepy gray pixel-art cat with floating Z letters">
  <g>
    <animateTransform attributeName="transform" type="translate"
                      values="0 0; 0 -2; 0 0"
                      calcMode="spline"
                      keySplines="0.42 0 0.58 1; 0.42 0 0.58 1"
                      keyTimes="0;0.5;1" dur="5s" repeatCount="indefinite"/>
    <rect x="30" y="10" width="10" height="10" fill="#b0b0b0"/>
    <rect x="40" y="10" width="10" height="10" fill="#b0b0b0"/>
    <rect x="20" y="20" width="40" height="10" fill="#b0b0b0"/>
    <rect x="10" y="30" width="60" height="10" fill="#b0b0b0"/>
    <rect x="30" y="20" width="10" height="10" fill="#d0d0d0"/>
    <rect x="30" y="30" width="20" height="10" fill="#d0d0d0"/>
    <rect x="150" y="10" width="10" height="10" fill="#b0b0b0"/>
    <rect x="160" y="10" width="10" height="10" fill="#b0b0b0"/>
    <rect x="140" y="20" width="40" height="10" fill="#b0b0b0"/>
    <rect x="130" y="30" width="60" height="10" fill="#b0b0b0"/>
    <rect x="160" y="20" width="10" height="10" fill="#d0d0d0"/>
    <rect x="150" y="30" width="20" height="10" fill="#d0d0d0"/>
    <rect x="10"  y="40" width="180" height="80" fill="#b0b0b0"/>
    <rect x="0"   y="50" width="10"  height="60" fill="#b0b0b0"/>
    <rect x="190" y="50" width="10"  height="60" fill="#b0b0b0"/>
    <rect x="20"  y="120" width="160" height="10" fill="#b0b0b0"/>
    <rect x="30"  y="130" width="140" height="10" fill="#b0b0b0"/>
    <rect x="40"  y="140" width="120" height="10" fill="#b0b0b0"/>
    <rect x="30"  y="40" width="10" height="10" fill="#707070"/>
    <rect x="20"  y="50" width="10" height="10" fill="#707070"/>
    <rect x="10"  y="60" width="10" height="10" fill="#707070"/>
    <rect x="30"  y="70" width="10" height="10" fill="#707070"/>
    <rect x="40"  y="80" width="10" height="10" fill="#707070"/>
    <rect x="20"  y="90" width="10" height="10" fill="#707070"/>
    <rect x="170" y="40" width="10" height="10" fill="#707070"/>
    <rect x="180" y="50" width="10" height="10" fill="#707070"/>
    <rect x="170" y="70" width="10" height="10" fill="#707070"/>
    <rect x="160" y="80" width="10" height="10" fill="#707070"/>
    <rect x="180" y="90" width="10" height="10" fill="#707070"/>
    <rect x="50"  y="70" width="20" height="30" fill="#d0d0d0"/>
    <rect x="130" y="70" width="20" height="30" fill="#d0d0d0"/>
    <rect x="50"  y="82" width="20" height="6"  fill="#505050"/>
    <rect x="130" y="82" width="20" height="6"  fill="#505050"/>
    <rect x="90" y="108" width="20" height="10" fill="#b88080"/>
    <rect x="95" y="118" width="10" height="10" fill="#b88080"/>
    <rect x="85"  y="135" width="10" height="5" fill="#4a4a4a"/>
    <rect x="105" y="135" width="10" height="5" fill="#4a4a4a"/>
    <g stroke="#4a4a4a" stroke-width="2" stroke-linecap="square" fill="none">
      <line x1="10"  y1="110" x2="70"  y2="110"/>
      <line x1="10"  y1="120" x2="70"  y2="117"/>
      <line x1="130" y1="110" x2="190" y2="110"/>
      <line x1="130" y1="117" x2="190" y2="120"/>
    </g>
    <g>
      <rect x="152" y="55" width="20" height="4" fill="#909090"/>
      <rect x="168" y="59" width="8"  height="4" fill="#909090"/>
      <rect x="160" y="63" width="6"  height="4" fill="#909090"/>
      <rect x="152" y="67" width="8"  height="4" fill="#909090"/>
      <rect x="152" y="67" width="20" height="4" fill="#909090"/>
      <animateTransform attributeName="transform" type="translate" values="0,0; 6,-22; 12,-44" calcMode="linear" dur="3s" repeatCount="indefinite"/>
      <animate attributeName="opacity" values="1;0.6;0" dur="3s" repeatCount="indefinite"/>
    </g>
    <g>
      <rect x="158" y="40" width="26" height="5" fill="#b0b0b0"/>
      <rect x="178" y="45" width="10" height="5" fill="#b0b0b0"/>
      <rect x="168" y="50" width="8"  height="5" fill="#b0b0b0"/>
      <rect x="158" y="55" width="10" height="5" fill="#b0b0b0"/>
      <rect x="158" y="55" width="26" height="5" fill="#b0b0b0"/>
      <animateTransform attributeName="transform" type="translate" values="0,0; 8,-28; 16,-56" calcMode="linear" dur="3s" begin="1.5s" repeatCount="indefinite"/>
      <animate attributeName="opacity" values="0;1;0.5;0" keyTimes="0;0.1;0.7;1" dur="3s" begin="1.5s" repeatCount="indefinite"/>
    </g>
  </g>
</svg>
