<?xml version="1.0" encoding="UTF-8"?>
<svg xmlns="http://www.w3.org/2000/svg" viewBox="0 -50 200 230" width="200" shape-rendering="crispEdges" role="img" aria-label="distinguished brown pixel-art cat with top hat and monocle">
  <g>
    <animateTransform attributeName="transform" type="translate"
                      values="0 0; 0 -1; 0 0"
                      calcMode="spline"
                      keySplines="0.42 0 0.58 1; 0.42 0 0.58 1"
                      keyTimes="0;0.5;1" dur="3.2s" repeatCount="indefinite"/>
    <rect x="35" y="-50" width="130" height="40" fill="#2a1a0a"/>
    <rect x="30" y="-10" width="140" height="12" fill="#2a1a0a"/>
    <rect x="35" y="-10" width="130" height="8"  fill="#8a6030"/>
    <rect x="30" y="10" width="10" height="10" fill="#9b6b4a"/>
    <rect x="40" y="10" width="10" height="10" fill="#9b6b4a"/>
    <rect x="20" y="20" width="40" height="10" fill="#9b6b4a"/>
    <rect x="10" y="30" width="60" height="10" fill="#9b6b4a"/>
    <rect x="30" y="20" width="10" height="10" fill="#b88060"/>
    <rect x="30" y="30" width="20" height="10" fill="#b88060"/>
    <rect x="150" y="10" width="10" height="10" fill="#9b6b4a"/>
    <rect x="160" y="10" width="10" height="10" fill="#9b6b4a"/>
    <rect x="140" y="20" width="40" height="10" fill="#9b6b4a"/>
    <rect x="130" y="30" width="60" height="10" fill="#9b6b4a"/>
    <rect x="160" y="20" width="10" height="10" fill="#b88060"/>
    <rect x="150" y="30" width="20" height="10" fill="#b88060"/>
    <rect x="10"  y="40" width="180" height="80" fill="#9b6b4a"/>
    <rect x="0"   y="50" width="10"  height="60" fill="#9b6b4a"/>
    <rect x="190" y="50" width="10"  height="60" fill="#9b6b4a"/>
    <rect x="20"  y="120" width="160" height="10" fill="#9b6b4a"/>
    <rect x="30"  y="130" width="140" height="10" fill="#9b6b4a"/>
    <rect x="40"  y="140" width="120" height="10" fill="#9b6b4a"/>
    <rect x="30"  y="40" width="10" height="10" fill="#7a4a28"/>
    <rect x="20"  y="50" width="10" height="10" fill="#7a4a28"/>
    <rect x="10"  y="60" width="10" height="10" fill="#7a4a28"/>
    <rect x="30"  y="70" width="10" height="10" fill="#7a4a28"/>
    <rect x="40"  y="80" width="10" height="10" fill="#7a4a28"/>
    <rect x="20"  y="90" width="10" height="10" fill="#7a4a28"/>
    <rect x="170" y="40" width="10" height="10" fill="#7a4a28"/>
    <rect x="180" y="50" width="10" height="10" fill="#7a4a28"/>
    <rect x="170" y="70" width="10" height="10" fill="#7a4a28"/>
    <rect x="160" y="80" width="10" height="10" fill="#7a4a28"/>
    <rect x="180" y="90" width="10" height="10" fill="#7a4a28"/>
    <rect x="50"  y="70" width="20" height="30" fill="#fafafa"/>
    <rect x="130" y="70" width="20" height="30" fill="#fafafa"/>
    <rect x="50" y="70" width="20" height="30" fill="#d4a820">
      <animate attributeName="height" values="30;30;30;30;0;30" calcMode="spline" keySplines="0.42 0 0.58 1; 0.42 0 0.58 1; 0.42 0 0.58 1; 0.12 0 0.39 0; 0.61 1 0.88 1" keyTimes="0;0.3;0.7;0.9;0.93;1" dur="4.5s" repeatCount="indefinite"/>
      <animate attributeName="y" values="70;70;70;70;85;70" calcMode="spline" keySplines="0.42 0 0.58 1; 0.42 0 0.58 1; 0.42 0 0.58 1; 0.12 0 0.39 0; 0.61 1 0.88 1" keyTimes="0;0.3;0.7;0.9;0.93;1" dur="4.5s" repeatCount="indefinite"/>
    </rect>
    <rect x="130" y="70" width="20" height="30" fill="#d4a820">
      <animate attributeName="height" values="30;30;30;30;0;30" calcMode="spline" keySplines="0.42 0 0.58 1; 0.42 0 0.58 1; 0.42 0 0.58 1; 0.12 0 0.39 0; 0.61 1 0.88 1" keyTimes="0;0.3;0.7;0.9;0.93;1" dur="4.5s" repeatCount="indefinite"/>
      <animate attributeName="y" values="70;70;70;70;85;70" calcMode="spline" keySplines="0.42 0 0.58 1; 0.42 0 0.58 1; 0.42 0 0.58 1; 0.12 0 0.39 0; 0.61 1 0.88 1" keyTimes="0;0.3;0.7;0.9;0.93;1" dur="4.5s" repeatCount="indefinite"/>
    </rect>
    <rect x="55" y="80" width="10" height="15" fill="#1a1a1a">
      <animate attributeName="height" values="15;15;15;15;0;15" calcMode="spline" keySplines="0.42 0 0.58 1; 0.42 0 0.58 1; 0.42 0 0.58 1; 0.12 0 0.39 0; 0.61 1 0.88 1" keyTimes="0;0.3;0.7;0.9;0.93;1" dur="4.5s" repeatCount="indefinite"/>
      <animate attributeName="y" values="80;80;80;80;87;80" calcMode="spline" keySplines="0.42 0 0.58 1; 0.42 0 0.58 1; 0.42 0 0.58 1; 0.12 0 0.39 0; 0.61 1 0.88 1" keyTimes="0;0.3;0.7;0.9;0.93;1" dur="4.5s" repeatCount="indefinite"/>
    </rect>
    <rect x="135" y="80" width="10" height="15" fill="#1a1a1a">
      <animate attributeName="height" values="15;15;15;15;0;15" calcMode="spline" keySplines="0.42 0 0.58 1; 0.42 0 0.58 1; 0.42 0 0.58 1; 0.12 0 0.39 0; 0.61 1 0.88 1" keyTimes="0;0.3;0.7;0.9;0.93;1" dur="4.5s" repeatCount="indefinite"/>
      <animate attributeName="y" values="80;80;80;80;87;80" calcMode="spline" keySplines="0.42 0 0.58 1; 0.42 0 0.58 1; 0.42 0 0.58 1; 0.12 0 0.39 0; 0.61 1 0.88 1" keyTimes="0;0.3;0.7;0.9;0.93;1" dur="4.5s" repeatCount="indefinite"/>
    </rect>
    <rect x="55" y="73" width="5" height="5" fill="#fafafa"/>
    <rect x="135" y="73" width="5" height="5" fill="#fafafa"/>
    <rect x="125" y="63" width="32" height="4" fill="#d4a820"/>
    <rect x="125" y="98" width="32" height="4" fill="#d4a820"/>
    <rect x="125" y="63" width="4"  height="39" fill="#d4a820"/>
    <rect x="153" y="63" width="4"  height="39" fill="#d4a820"/>
    <rect x="90" y="108" width="20" height="10" fill="#c05050"/>
    <rect x="95" y="118" width="10" height="10" fill="#c05050"/>
    <g>
      <animateTransform attributeName="transform" type="rotate" values="0 100 120; 0 100 120; -3 100 120; 0 100 120" calcMode="spline" keySplines="0.42 0 0.58 1; 0.12 0 0.39 0; 0.61 1 0.88 1" keyTimes="0;0.9;0.93;1" dur="4.5s" repeatCount="indefinite"/>
      <rect x="85"  y="135" width="10" height="5" fill="#4a2a10"/>
      <rect x="105" y="135" width="10" height="5" fill="#4a2a10"/>
    </g>
    <g stroke="#4a2a10" stroke-width="2" stroke-linecap="square" fill="none">
      <animateTransform attributeName="transform" type="rotate" values="0 100 115; 0 100 115; 0 100 115; -2 100 115; 2 100 115; 0 100 115" calcMode="spline" keySplines="0.42 0 0.58 1; 0.42 0 0.58 1; 0.12 0 0.39 0; 0.61 1 0.88 1; 0.42 0 0.58 1" keyTimes="0;0.85;0.9;0.93;0.96;1" dur="4.5s" repeatCount="indefinite"/>
      <line x1="10"  y1="110" x2="70"  y2="110"/>
      <line x1="10"  y1="120" x2="70"  y2="117"/>
      <line x1="130" y1="110" x2="190" y2="110"/>
      <line x1="130" y1="117" x2="190" y2="120"/>
    </g>
  </g>
</svg>
