<?xml version="1.0" encoding="UTF-8"?>
<svg xmlns="http://www.w3.org/2000/svg" viewBox="0 0 240 180" width="240" shape-rendering="crispEdges" role="img" aria-label="extra chonky wide orange pixel-art cat">
  <g>
    <animateTransform attributeName="transform" type="translate"
                      values="0 0; 0 -1; 0 0"
                      calcMode="spline"
                      keySplines="0.42 0 0.58 1; 0.42 0 0.58 1"
                      keyTimes="0;0.5;1" dur="3.2s" repeatCount="indefinite"/>
    <rect x="30" y="10" width="10" height="10" fill="#e89b5a"/>
    <rect x="40" y="10" width="10" height="10" fill="#e89b5a"/>
    <rect x="20" y="20" width="40" height="10" fill="#e89b5a"/>
    <rect x="10" y="30" width="60" height="10" fill="#e89b5a"/>
    <rect x="30" y="20" width="10" height="10" fill="#f4b078"/>
    <rect x="30" y="30" width="20" height="10" fill="#f4b078"/>
    <rect x="190" y="10" width="10" height="10" fill="#e89b5a"/>
    <rect x="200" y="10" width="10" height="10" fill="#e89b5a"/>
    <rect x="180" y="20" width="40" height="10" fill="#e89b5a"/>
    <rect x="170" y="30" width="60" height="10" fill="#e89b5a"/>
    <rect x="200" y="20" width="10" height="10" fill="#f4b078"/>
    <rect x="190" y="30" width="20" height="10" fill="#f4b078"/>
    <rect x="10"  y="40" width="220" height="80" fill="#e89b5a"/>
    <rect x="0"   y="50" width="10"  height="60" fill="#e89b5a"/>
    <rect x="230" y="50" width="10"  height="60" fill="#e89b5a"/>
    <rect x="10"  y="120" width="220" height="10" fill="#e89b5a"/>
    <rect x="20"  y="130" width="200" height="10" fill="#e89b5a"/>
    <rect x="30"  y="140" width="180" height="10" fill="#e89b5a"/>
    <rect x="30"  y="40" width="10" height="10" fill="#c27a3a"/>
    <rect x="20"  y="50" width="10" height="10" fill="#c27a3a"/>
    <rect x="10"  y="60" width="10" height="10" fill="#c27a3a"/>
    <rect x="30"  y="70" width="10" height="10" fill="#c27a3a"/>
    <rect x="40"  y="80" width="10" height="10" fill="#c27a3a"/>
    <rect x="20"  y="90" width="10" height="10" fill="#c27a3a"/>
    <rect x="210" y="40" width="10" height="10" fill="#c27a3a"/>
    <rect x="220" y="50" width="10" height="10" fill="#c27a3a"/>
    <rect x="210" y="70" width="10" height="10" fill="#c27a3a"/>
    <rect x="200" y="80" width="10" height="10" fill="#c27a3a"/>
    <rect x="220" y="90" width="10" height="10" fill="#c27a3a"/>
    <rect x="60"  y="70" width="20" height="30" fill="#fafafa"/>
    <rect x="160" y="70" width="20" height="30" fill="#fafafa"/>
    <rect x="60" y="70" width="20" height="30" fill="#3a7c3a">
      <animate attributeName="height" values="30;30;30;30;0;30" calcMode="spline" keySplines="0.42 0 0.58 1; 0.42 0 0.58 1; 0.42 0 0.58 1; 0.12 0 0.39 0; 0.61 1 0.88 1" keyTimes="0;0.3;0.7;0.9;0.93;1" dur="4.5s" repeatCount="indefinite"/>
      <animate attributeName="y" values="70;70;70;70;85;70" calcMode="spline" keySplines="0.42 0 0.58 1; 0.42 0 0.58 1; 0.42 0 0.58 1; 0.12 0 0.39 0; 0.61 1 0.88 1" keyTimes="0;0.3;0.7;0.9;0.93;1" dur="4.5s" repeatCount="indefinite"/>
    </rect>
    <rect x="160" y="70" width="20" height="30" fill="#3a7c3a">
      <animate attributeName="height" values="30;30;30;30;0;30" calcMode="spline" keySplines="0.42 0 0.58 1; 0.42 0 0.58 1; 0.42 0 0.58 1; 0.12 0 0.39 0; 0.61 1 0.88 1" keyTimes="0;0.3;0.7;0.9;0.93;1" dur="4.5s" repeatCount="indefinite"/>
      <animate attributeName="y" values="70;70;70;70;85;70" calcMode="spline" keySplines="0.42 0 0.58 1; 0.42 0 0.58 1; 0.42 0 0.58 1; 0.12 0 0.39 0; 0.61 1 0.88 1" keyTimes="0;0.3;0.7;0.9;0.93;1" dur="4.5s" repeatCount="indefinite"/>
    </rect>
    <rect x="65" y="80" width="10" height="15" fill="#1a1a1a">
      <animate attributeName="height" values="15;15;15;15;0;15" calcMode="spline" keySplines="0.42 0 0.58 1; 0.42 0 0.58 1; 0.42 0 0.58 1; 0.12 0 0.39 0; 0.61 1 0.88 1" keyTimes="0;0.3;0.7;0.9;0.93;1" dur="4.5s" repeatCount="indefinite"/>
      <animate attributeName="y" values="80;80;80;80;87;80" calcMode="spline" keySplines="0.42 0 0.58 1; 0.42 0 0.58 1; 0.42 0 0.58 1; 0.12 0 0.39 0; 0.61 1 0.88 1" keyTimes="0;0.3;0.7;0.9;0.93;1" dur="4.5s" repeatCount="indefinite"/>
    </rect>
    <rect x="165" y="80" width="10" height="15" fill="#1a1a1a">
      <animate attributeName="height" values="15;15;15;15;0;15" calcMode="spline" keySplines="0.42 0 0.58 1; 0.42 0 0.58 1; 0.42 0 0.58 1; 0.12 0 0.39 0; 0.61 1 0.88 1" keyTimes="0;0.3;0.7;0.9;0.93;1" dur="4.5s" repeatCount="indefinite"/>
      <animate attributeName="y" values="80;80;80;80;87;80" calcMode="spline" keySplines="0.42 0 0.58 1; 0.42 0 0.58 1; 0.42 0 0.58 1; 0.12 0 0.39 0; 0.61 1 0.88 1" keyTimes="0;0.3;0.7;0.9;0.93;1" dur="4.5s" repeatCount="indefinite"/>
    </rect>
    <rect x="65" y="73" width="5" height="5" fill="#fafafa"/>
    <rect x="165" y="73" width="5" height="5" fill="#fafafa"/>
    <rect x="110" y="108" width="20" height="10" fill="#c06060"/>
    <rect x="115" y="118" width="10" height="10" fill="#c06060"/>
    <g>
      <animateTransform attributeName="transform" type="rotate" values="0 120 120; 0 120 120; -3 120 120; 0 120 120" calcMode="spline" keySplines="0.42 0 0.58 1; 0.12 0 0.39 0; 0.61 1 0.88 1" keyTimes="0;0.9;0.93;1" dur="4.5s" repeatCount="indefinite"/>
      <rect x="105" y="135" width="10" height="5" fill="#6b3a1a"/>
      <rect x="125" y="135" width="10" height="5" fill="#6b3a1a"/>
    </g>
    <g stroke="#6b3a1a" stroke-width="2" stroke-linecap="square" fill="none">
      <animateTransform attributeName="transform" type="rotate" values="0 120 115; 0 120 115; 0 120 115; -2 120 115; 2 120 115; 0 120 115" calcMode="spline" keySplines="0.42 0 0.58 1; 0.42 0 0.58 1; 0.12 0 0.39 0; 0.61 1 0.88 1; 0.42 0 0.58 1" keyTimes="0;0.85;0.9;0.93;0.96;1" dur="4.5s" repeatCount="indefinite"/>
      <line x1="10"  y1="110" x2="80"  y2="110"/>
      <line x1="10"  y1="120" x2="80"  y2="117"/>
      <line x1="160" y1="110" x2="230" y2="110"/>
      <line x1="160" y1="117" x2="230" y2="120"/>
    </g>
  </g>
</svg>
