<?xml version="1.0" encoding="UTF-8"?>
<svg xmlns="http://www.w3.org/2000/svg" viewBox="0 0 200 180" width="200" shape-rendering="crispEdges" role="img" aria-label="pink pixel-art cat with heart eyes">
  <g>
    <animateTransform attributeName="transform" type="translate"
                      values="0 0; 0 -1; 0 0"
                      calcMode="spline"
                      keySplines="0.42 0 0.58 1; 0.42 0 0.58 1"
                      keyTimes="0;0.5;1" dur="3.2s" repeatCount="indefinite"/>
    <rect x="30" y="10" width="10" height="10" fill="#f0b0c0"/>
    <rect x="40" y="10" width="10" height="10" fill="#f0b0c0"/>
    <rect x="20" y="20" width="40" height="10" fill="#f0b0c0"/>
    <rect x="10" y="30" width="60" height="10" fill="#f0b0c0"/>
    <rect x="30" y="20" width="10" height="10" fill="#ffd0e0"/>
    <rect x="30" y="30" width="20" height="10" fill="#ffd0e0"/>
    <rect x="150" y="10" width="10" height="10" fill="#f0b0c0"/>
    <rect x="160" y="10" width="10" height="10" fill="#f0b0c0"/>
    <rect x="140" y="20" width="40" height="10" fill="#f0b0c0"/>
    <rect x="130" y="30" width="60" height="10" fill="#f0b0c0"/>
    <rect x="160" y="20" width="10" height="10" fill="#ffd0e0"/>
    <rect x="150" y="30" width="20" height="10" fill="#ffd0e0"/>
    <rect x="10"  y="40" width="180" height="80" fill="#f0b0c0"/>
    <rect x="0"   y="50" width="10"  height="60" fill="#f0b0c0"/>
    <rect x="190" y="50" width="10"  height="60" fill="#f0b0c0"/>
    <rect x="20"  y="120" width="160" height="10" fill="#f0b0c0"/>
    <rect x="30"  y="130" width="140" height="10" fill="#f0b0c0"/>
    <rect x="40"  y="140" width="120" height="10" fill="#f0b0c0"/>
    <rect x="30"  y="40" width="10" height="10" fill="#c87888"/>
    <rect x="20"  y="50" width="10" height="10" fill="#c87888"/>
    <rect x="10"  y="60" width="10" height="10" fill="#c87888"/>
    <rect x="30"  y="70" width="10" height="10" fill="#c87888"/>
    <rect x="40"  y="80" width="10" height="10" fill="#c87888"/>
    <rect x="20"  y="90" width="10" height="10" fill="#c87888"/>
    <rect x="170" y="40" width="10" height="10" fill="#c87888"/>
    <rect x="180" y="50" width="10" height="10" fill="#c87888"/>
    <rect x="170" y="70" width="10" height="10" fill="#c87888"/>
    <rect x="160" y="80" width="10" height="10" fill="#c87888"/>
    <rect x="180" y="90" width="10" height="10" fill="#c87888"/>
    <rect x="50"  y="70" width="20" height="30" fill="#fafafa"/>
    <rect x="130" y="70" width="20" height="30" fill="#fafafa"/>
    <rect x="52" y="72" width="6" height="8" fill="#e84080">
      <animate attributeName="height" values="8;8;8;8;0;8" calcMode="spline" keySplines="0.42 0 0.58 1; 0.42 0 0.58 1; 0.42 0 0.58 1; 0.12 0 0.39 0; 0.61 1 0.88 1" keyTimes="0;0.3;0.7;0.9;0.93;1" dur="4.5s" repeatCount="indefinite"/>
    </rect>
    <rect x="62" y="72" width="6" height="8" fill="#e84080">
      <animate attributeName="height" values="8;8;8;8;0;8" calcMode="spline" keySplines="0.42 0 0.58 1; 0.42 0 0.58 1; 0.42 0 0.58 1; 0.12 0 0.39 0; 0.61 1 0.88 1" keyTimes="0;0.3;0.7;0.9;0.93;1" dur="4.5s" repeatCount="indefinite"/>
    </rect>
    <rect x="50" y="78" width="20" height="12" fill="#e84080">
      <animate attributeName="height" values="12;12;12;12;0;12" calcMode="spline" keySplines="0.42 0 0.58 1; 0.42 0 0.58 1; 0.42 0 0.58 1; 0.12 0 0.39 0; 0.61 1 0.88 1" keyTimes="0;0.3;0.7;0.9;0.93;1" dur="4.5s" repeatCount="indefinite"/>
    </rect>
    <rect x="52" y="90" width="16" height="6" fill="#e84080">
      <animate attributeName="height" values="6;6;6;6;0;6" calcMode="spline" keySplines="0.42 0 0.58 1; 0.42 0 0.58 1; 0.42 0 0.58 1; 0.12 0 0.39 0; 0.61 1 0.88 1" keyTimes="0;0.3;0.7;0.9;0.93;1" dur="4.5s" repeatCount="indefinite"/>
    </rect>
    <rect x="57" y="96" width="6"  height="4" fill="#e84080">
      <animate attributeName="height" values="4;4;4;4;0;4" calcMode="spline" keySplines="0.42 0 0.58 1; 0.42 0 0.58 1; 0.42 0 0.58 1; 0.12 0 0.39 0; 0.61 1 0.88 1" keyTimes="0;0.3;0.7;0.9;0.93;1" dur="4.5s" repeatCount="indefinite"/>
    </rect>
    <rect x="132" y="72" width="6" height="8" fill="#e84080">
      <animate attributeName="height" values="8;8;8;8;0;8" calcMode="spline" keySplines="0.42 0 0.58 1; 0.42 0 0.58 1; 0.42 0 0.58 1; 0.12 0 0.39 0; 0.61 1 0.88 1" keyTimes="0;0.3;0.7;0.9;0.93;1" dur="4.5s" repeatCount="indefinite"/>
    </rect>
    <rect x="142" y="72" width="6" height="8" fill="#e84080">
      <animate attributeName="height" values="8;8;8;8;0;8" calcMode="spline" keySplines="0.42 0 0.58 1; 0.42 0 0.58 1; 0.42 0 0.58 1; 0.12 0 0.39 0; 0.61 1 0.88 1" keyTimes="0;0.3;0.7;0.9;0.93;1" dur="4.5s" repeatCount="indefinite"/>
    </rect>
    <rect x="130" y="78" width="20" height="12" fill="#e84080">
      <animate attributeName="height" values="12;12;12;12;0;12" calcMode="spline" keySplines="0.42 0 0.58 1; 0.42 0 0.58 1; 0.42 0 0.58 1; 0.12 0 0.39 0; 0.61 1 0.88 1" keyTimes="0;0.3;0.7;0.9;0.93;1" dur="4.5s" repeatCount="indefinite"/>
    </rect>
    <rect x="132" y="90" width="16" height="6" fill="#e84080">
      <animate attributeName="height" values="6;6;6;6;0;6" calcMode="spline" keySplines="0.42 0 0.58 1; 0.42 0 0.58 1; 0.42 0 0.58 1; 0.12 0 0.39 0; 0.61 1 0.88 1" keyTimes="0;0.3;0.7;0.9;0.93;1" dur="4.5s" repeatCount="indefinite"/>
    </rect>
    <rect x="137" y="96" width="6"  height="4" fill="#e84080">
      <animate attributeName="height" values="4;4;4;4;0;4" calcMode="spline" keySplines="0.42 0 0.58 1; 0.42 0 0.58 1; 0.42 0 0.58 1; 0.12 0 0.39 0; 0.61 1 0.88 1" keyTimes="0;0.3;0.7;0.9;0.93;1" dur="4.5s" repeatCount="indefinite"/>
    </rect>
    <rect x="55" y="73" width="5" height="5" fill="#fafafa"/>
    <rect x="135" y="73" width="5" height="5" fill="#fafafa"/>
    <rect x="90" y="108" width="20" height="10" fill="#d06060"/>
    <rect x="95" y="118" width="10" height="10" fill="#d06060"/>
    <g>
      <animateTransform attributeName="transform" type="rotate" values="0 100 120; 0 100 120; -3 100 120; 0 100 120" calcMode="spline" keySplines="0.42 0 0.58 1; 0.12 0 0.39 0; 0.61 1 0.88 1" keyTimes="0;0.9;0.93;1" dur="4.5s" repeatCount="indefinite"/>
      <rect x="85"  y="135" width="10" height="5" fill="#a06070"/>
      <rect x="105" y="135" width="10" height="5" fill="#a06070"/>
    </g>
    <g stroke="#a06070" stroke-width="2" stroke-linecap="square" fill="none">
      <animateTransform attributeName="transform" type="rotate" values="0 100 115; 0 100 115; 0 100 115; -2 100 115; 2 100 115; 0 100 115" calcMode="spline" keySplines="0.42 0 0.58 1; 0.42 0 0.58 1; 0.12 0 0.39 0; 0.61 1 0.88 1; 0.42 0 0.58 1" keyTimes="0;0.85;0.9;0.93;0.96;1" dur="4.5s" repeatCount="indefinite"/>
      <line x1="10"  y1="110" x2="70"  y2="110"/>
      <line x1="10"  y1="120" x2="70"  y2="117"/>
      <line x1="130" y1="110" x2="190" y2="110"/>
      <line x1="130" y1="117" x2="190" y2="120"/>
    </g>
  </g>
</svg>
