<?xml version="1.0" encoding="UTF-8"?>
<svg xmlns="http://www.w3.org/2000/svg" viewBox="0 0 260 260" width="260" role="img" aria-label="a fat orange tabby cat sitting, blinking lazily, tail flicking, occasionally yawning">

  <ellipse cx="130" cy="245" rx="82" ry="6" fill="#000" opacity="0.12"/>

  <ellipse cx="130" cy="200" rx="78" ry="50" fill="#e89b5a"/>
  <ellipse cx="130" cy="210" rx="58" ry="34" fill="#f4b078"/>

  <path d="M 92 178 Q 97 190 92 202" stroke="#c27a3a" stroke-width="3" fill="none"/>
  <path d="M 130 172 Q 136 188 130 206" stroke="#c27a3a" stroke-width="3" fill="none"/>
  <path d="M 168 178 Q 173 190 168 202" stroke="#c27a3a" stroke-width="3" fill="none"/>

  <ellipse cx="92" cy="240" rx="16" ry="10" fill="#e89b5a"/>
  <ellipse cx="168" cy="240" rx="16" ry="10" fill="#e89b5a">
    <animate attributeName="cy" values="240;238;240;240;240;238;240" keyTimes="0;0.1;0.15;0.4;0.55;0.6;1" dur="5s" repeatCount="indefinite"/>
  </ellipse>

  <path d="M 205 195 Q 240 175 245 145" stroke="#e89b5a" stroke-width="14" fill="none" stroke-linecap="round">
    <animateTransform attributeName="transform" type="rotate" values="0 205 195; 14 205 195; 0 205 195; -10 205 195; 0 205 195" dur="2.6s" repeatCount="indefinite"/>
  </path>

  <circle cx="130" cy="125" r="50" fill="#e89b5a"/>
  <ellipse cx="130" cy="140" rx="40" ry="30" fill="#f4b078"/>

  <path d="M 88 105 Q 82 74 105 100" fill="#e89b5a"/>
  <path d="M 172 105 Q 178 74 155 100" fill="#e89b5a"/>
  <path d="M 92 100 Q 90 85 100 99" fill="#d4a5a5"/>
  <path d="M 168 100 Q 170 85 160 99" fill="#d4a5a5"/>

  <path d="M 95 115 Q 100 125 108 120" stroke="#c27a3a" stroke-width="2.5" fill="none"/>
  <path d="M 165 115 Q 160 125 152 120" stroke="#c27a3a" stroke-width="2.5" fill="none"/>

  <ellipse cx="112" cy="128" rx="9" ry="11" fill="#fafafa"/>
  <ellipse cx="148" cy="128" rx="9" ry="11" fill="#fafafa"/>

  <ellipse cx="112" cy="128" rx="4.5" ry="9" fill="#3a7c3a">
    <animate attributeName="ry" values="9;9;9;9;0.5;9;9;9" keyTimes="0;0.4;0.7;0.85;0.89;0.93;0.97;1" dur="5s" repeatCount="indefinite"/>
  </ellipse>
  <ellipse cx="148" cy="128" rx="4.5" ry="9" fill="#3a7c3a">
    <animate attributeName="ry" values="9;9;9;9;0.5;9;9;9" keyTimes="0;0.4;0.7;0.85;0.89;0.93;0.97;1" dur="5s" repeatCount="indefinite"/>
  </ellipse>
  <ellipse cx="112" cy="128" rx="1.5" ry="7" fill="#1a1a1a">
    <animate attributeName="ry" values="7;7;7;7;0.2;7;7;7" keyTimes="0;0.4;0.7;0.85;0.89;0.93;0.97;1" dur="5s" repeatCount="indefinite"/>
  </ellipse>
  <ellipse cx="148" cy="128" rx="1.5" ry="7" fill="#1a1a1a">
    <animate attributeName="ry" values="7;7;7;7;0.2;7;7;7" keyTimes="0;0.4;0.7;0.85;0.89;0.93;0.97;1" dur="5s" repeatCount="indefinite"/>
  </ellipse>
  <circle cx="113" cy="125" r="1" fill="#fafafa"/>
  <circle cx="149" cy="125" r="1" fill="#fafafa"/>

  <path d="M 125 148 L 130 152 L 135 148 Z" fill="#c27a3a"/>

  <path d="M 130 152 Q 123 160 115 156" stroke="#6b3a1a" stroke-width="1.5" fill="none"/>
  <path d="M 130 152 Q 137 160 145 156" stroke="#6b3a1a" stroke-width="1.5" fill="none"/>

  <line x1="85" y1="140" x2="112" y2="144" stroke="#6b3a1a" stroke-width="0.9"/>
  <line x1="85" y1="148" x2="112" y2="150" stroke="#6b3a1a" stroke-width="0.9"/>
  <line x1="148" y1="144" x2="175" y2="140" stroke="#6b3a1a" stroke-width="0.9"/>
  <line x1="148" y1="150" x2="175" y2="148" stroke="#6b3a1a" stroke-width="0.9"/>
</svg>
