<?xml version="1.0" encoding="UTF-8"?>
<svg xmlns="http://www.w3.org/2000/svg" viewBox="0 0 900 140" width="100%" role="img" aria-label="a parade of four differently colored cats walking across the page at different speeds">

  <g>
    <animateTransform attributeName="transform" type="translate" values="-150 0; 1050 0" dur="14s" repeatCount="indefinite"/>
    <g>
      <animateTransform attributeName="transform" type="translate" values="0 0; 0 -3; 0 0" dur="0.5s" repeatCount="indefinite"/>
      <ellipse cx="65" cy="118" rx="50" ry="3" fill="#000" opacity="0.12"/>
      <ellipse cx="60" cy="82" rx="50" ry="22" fill="#e89b5a"/>
      <ellipse cx="60" cy="85" rx="38" ry="14" fill="#f4b078"/>
      <path d="M 35 74 Q 40 82 35 88" stroke="#c27a3a" stroke-width="2.2" fill="none"/>
      <path d="M 70 72 Q 76 82 70 92" stroke="#c27a3a" stroke-width="2.2" fill="none"/>
      <circle cx="115" cy="68" r="20" fill="#e89b5a"/>
      <polygon points="102,56 99,40 111,52" fill="#e89b5a"/>
      <polygon points="128,56 131,40 119,52" fill="#e89b5a"/>
      <polygon points="103,53 101,46 109,52" fill="#d4a5a5"/>
      <polygon points="127,53 129,46 121,52" fill="#d4a5a5"/>
      <circle cx="108" cy="67" r="2.2" fill="#1a1a1a"/>
      <circle cx="122" cy="67" r="2.2" fill="#1a1a1a"/>
      <polygon points="113,75 117,75 115,79" fill="#d4a5a5"/>
      <line x1="92" y1="73" x2="108" y2="74" stroke="#6b3a1a" stroke-width="0.6"/>
      <line x1="122" y1="74" x2="138" y2="73" stroke="#6b3a1a" stroke-width="0.6"/>
      <g fill="#e89b5a">
        <rect x="22" y="95" width="7" height="18"><animate attributeName="y" values="95;90;95" dur="0.5s" repeatCount="indefinite"/></rect>
        <rect x="44" y="95" width="7" height="18"><animate attributeName="y" values="90;95;90" dur="0.5s" repeatCount="indefinite"/></rect>
        <rect x="72" y="95" width="7" height="18"><animate attributeName="y" values="95;90;95" dur="0.5s" repeatCount="indefinite"/></rect>
        <rect x="92" y="95" width="7" height="18"><animate attributeName="y" values="90;95;90" dur="0.5s" repeatCount="indefinite"/></rect>
      </g>
      <path d="M 15 78 Q -6 60 4 38" stroke="#e89b5a" stroke-width="7" fill="none" stroke-linecap="round">
        <animateTransform attributeName="transform" type="rotate" values="0 15 78; 22 15 78; 0 15 78; -18 15 78; 0 15 78" dur="1.3s" repeatCount="indefinite"/>
      </path>
    </g>
  </g>

  <g>
    <animateTransform attributeName="transform" type="translate" values="-300 0; 1050 0" dur="11s" repeatCount="indefinite"/>
    <g transform="scale(0.85)">
      <animateTransform attributeName="transform" type="translate" values="0 0; 0 -4; 0 0" dur="0.42s" repeatCount="indefinite" additive="sum"/>
      <ellipse cx="65" cy="140" rx="44" ry="3" fill="#000" opacity="0.12"/>
      <ellipse cx="60" cy="100" rx="42" ry="18" fill="#9a9a9a"/>
      <path d="M 40 92 Q 44 100 40 108" stroke="#5c5c5c" stroke-width="1.8" fill="none"/>
      <path d="M 65 90 Q 70 100 65 110" stroke="#5c5c5c" stroke-width="1.8" fill="none"/>
      <circle cx="108" cy="88" r="18" fill="#9a9a9a"/>
      <polygon points="96,78 93,62 104,76" fill="#9a9a9a"/>
      <polygon points="120,78 123,62 112,76" fill="#9a9a9a"/>
      <polygon points="97,75 95,68 103,76" fill="#d4a5a5"/>
      <polygon points="119,75 121,68 113,76" fill="#d4a5a5"/>
      <circle cx="102" cy="88" r="2" fill="#1a1a1a"/>
      <circle cx="114" cy="88" r="2" fill="#1a1a1a"/>
      <polygon points="106,96 110,96 108,99" fill="#d4a5a5"/>
      <g fill="#9a9a9a">
        <rect x="25" y="114" width="6" height="16"><animate attributeName="y" values="114;109;114" dur="0.42s" repeatCount="indefinite"/></rect>
        <rect x="44" y="114" width="6" height="16"><animate attributeName="y" values="109;114;109" dur="0.42s" repeatCount="indefinite"/></rect>
        <rect x="70" y="114" width="6" height="16"><animate attributeName="y" values="114;109;114" dur="0.42s" repeatCount="indefinite"/></rect>
        <rect x="87" y="114" width="6" height="16"><animate attributeName="y" values="109;114;109" dur="0.42s" repeatCount="indefinite"/></rect>
      </g>
      <path d="M 18 96 Q -4 78 6 56" stroke="#9a9a9a" stroke-width="6" fill="none" stroke-linecap="round">
        <animateTransform attributeName="transform" type="rotate" values="0 18 96; 20 18 96; 0 18 96; -20 18 96; 0 18 96" dur="1.1s" repeatCount="indefinite"/>
      </path>
    </g>
  </g>

  <g>
    <animateTransform attributeName="transform" type="translate" values="-500 0; 1050 0" dur="9s" repeatCount="indefinite"/>
    <g transform="scale(0.65)">
      <animateTransform attributeName="transform" type="translate" values="0 0; 0 -4; 0 0" dur="0.32s" repeatCount="indefinite" additive="sum"/>
      <ellipse cx="65" cy="180" rx="42" ry="3" fill="#000" opacity="0.12"/>
      <ellipse cx="60" cy="130" rx="40" ry="17" fill="#e8d4a8"/>
      <circle cx="104" cy="118" r="17" fill="#e8d4a8"/>
      <polygon points="92,108 89,94 100,106" fill="#e8d4a8"/>
      <polygon points="116,108 119,94 108,106" fill="#e8d4a8"/>
      <polygon points="93,105 92,99 99,106" fill="#d4a5a5"/>
      <polygon points="115,105 116,99 109,106" fill="#d4a5a5"/>
      <circle cx="99" cy="118" r="1.8" fill="#1a1a1a"/>
      <circle cx="110" cy="118" r="1.8" fill="#1a1a1a"/>
      <polygon points="102,126 108,126 105,129" fill="#d4a5a5"/>
      <g fill="#e8d4a8">
        <rect x="25" y="142" width="6" height="14"><animate attributeName="y" values="142;138;142" dur="0.32s" repeatCount="indefinite"/></rect>
        <rect x="42" y="142" width="6" height="14"><animate attributeName="y" values="138;142;138" dur="0.32s" repeatCount="indefinite"/></rect>
        <rect x="66" y="142" width="6" height="14"><animate attributeName="y" values="142;138;142" dur="0.32s" repeatCount="indefinite"/></rect>
        <rect x="82" y="142" width="6" height="14"><animate attributeName="y" values="138;142;138" dur="0.32s" repeatCount="indefinite"/></rect>
      </g>
      <path d="M 20 126 Q -2 108 8 88" stroke="#e8d4a8" stroke-width="6" fill="none" stroke-linecap="round">
        <animateTransform attributeName="transform" type="rotate" values="0 20 126; 24 20 126; 0 20 126; -22 20 126; 0 20 126" dur="0.9s" repeatCount="indefinite"/>
      </path>
    </g>
  </g>

  <g>
    <animateTransform attributeName="transform" type="translate" values="-200 0; 1050 0" dur="12s" begin="3s" repeatCount="indefinite"/>
    <g transform="scale(0.92)">
      <animateTransform attributeName="transform" type="translate" values="0 0; 0 -3; 0 0" dur="0.48s" repeatCount="indefinite" additive="sum"/>
      <ellipse cx="65" cy="128" rx="46" ry="3" fill="#000" opacity="0.12"/>
      <ellipse cx="60" cy="92" rx="44" ry="19" fill="#9b6b4a"/>
      <path d="M 38 84 Q 42 92 38 100" stroke="#5c3d22" stroke-width="2" fill="none"/>
      <path d="M 65 82 Q 70 92 65 102" stroke="#5c3d22" stroke-width="2" fill="none"/>
      <path d="M 85 84 Q 88 92 85 100" stroke="#5c3d22" stroke-width="2" fill="none"/>
      <circle cx="110" cy="78" r="19" fill="#9b6b4a"/>
      <polygon points="97,66 94,50 106,64" fill="#9b6b4a"/>
      <polygon points="123,66 126,50 114,64" fill="#9b6b4a"/>
      <polygon points="98,63 96,56 104,64" fill="#d4a5a5"/>
      <polygon points="122,63 124,56 116,64" fill="#d4a5a5"/>
      <circle cx="103" cy="78" r="2" fill="#1a1a1a"/>
      <circle cx="117" cy="78" r="2" fill="#1a1a1a"/>
      <polygon points="107,86 113,86 110,89" fill="#d4a5a5"/>
      <g fill="#9b6b4a">
        <rect x="22" y="105" width="7" height="17"><animate attributeName="y" values="105;100;105" dur="0.48s" repeatCount="indefinite"/></rect>
        <rect x="42" y="105" width="7" height="17"><animate attributeName="y" values="100;105;100" dur="0.48s" repeatCount="indefinite"/></rect>
        <rect x="70" y="105" width="7" height="17"><animate attributeName="y" values="105;100;105" dur="0.48s" repeatCount="indefinite"/></rect>
        <rect x="90" y="105" width="7" height="17"><animate attributeName="y" values="100;105;100" dur="0.48s" repeatCount="indefinite"/></rect>
      </g>
      <path d="M 16 88 Q -6 68 4 46" stroke="#9b6b4a" stroke-width="7" fill="none" stroke-linecap="round">
        <animateTransform attributeName="transform" type="rotate" values="0 16 88; 18 16 88; 0 16 88; -22 16 88; 0 16 88" dur="1.4s" repeatCount="indefinite"/>
      </path>
    </g>
  </g>
</svg>
