<?xml version="1.0" encoding="UTF-8"?>
<svg xmlns="http://www.w3.org/2000/svg" viewBox="0 0 220 180" width="220" role="img" aria-label="an orange tabby cat walking in place, bouncing, tail waving, ears twitching, blinking with whiskers flickering, wearing a red collar with a yellow name tag">

  <ellipse cx="110" cy="162" rx="48" ry="5" fill="#1a1a1a" opacity="0.18">
    <animate attributeName="rx" values="48;42;48"
             calcMode="spline" keySplines="0.37 0 0.63 1; 0.37 0 0.63 1"
             keyTimes="0;0.5;1" dur="0.7s" repeatCount="indefinite"/>
    <animate attributeName="opacity" values="0.2;0.11;0.2"
             calcMode="spline" keySplines="0.37 0 0.63 1; 0.37 0 0.63 1"
             keyTimes="0;0.5;1" dur="0.7s" repeatCount="indefinite"/>
  </ellipse>

  <g>
    <animateTransform attributeName="transform" type="translate"
                      values="0 0; 0 -8; 0 0"
                      calcMode="spline"
                      keySplines="0.12 0 0.39 0; 0.61 1 0.88 1"
                      keyTimes="0;0.5;1" dur="0.7s" repeatCount="indefinite"/>

    <g>
      <rect x="78" y="122" width="9" height="28" rx="4" fill="#d87a2e">
        <animateTransform attributeName="transform" type="rotate"
                          values="-18 82 124; 22 82 124; -18 82 124"
                          calcMode="spline"
                          keySplines="0.37 0 0.63 1; 0.37 0 0.63 1"
                          keyTimes="0;0.5;1" dur="0.7s" repeatCount="indefinite"/>
      </rect>
      <rect x="130" y="122" width="9" height="28" rx="4" fill="#d87a2e">
        <animateTransform attributeName="transform" type="rotate"
                          values="22 134 124; -18 134 124; 22 134 124"
                          calcMode="spline"
                          keySplines="0.37 0 0.63 1; 0.37 0 0.63 1"
                          keyTimes="0;0.5;1" dur="0.7s" repeatCount="indefinite"/>
      </rect>
    </g>

    <path d="M 55 120 Q 55 80 90 75 Q 130 72 158 82 Q 172 95 168 120 Q 160 135 110 138 Q 65 135 55 120 Z"
          fill="#f4a86b"/>
    <path d="M 62 118 Q 66 96 95 93 Q 125 91 148 100 Q 158 110 155 120 Q 145 128 110 130 Q 72 128 62 118 Z"
          fill="#fac28f" opacity="0.9"/>

    <path d="M 75 96 Q 78 104 75 112" stroke="#c27a3a" stroke-width="2.2" stroke-linecap="round" fill="none"/>
    <path d="M 100 90 Q 103 102 100 114" stroke="#c27a3a" stroke-width="2.2" stroke-linecap="round" fill="none"/>
    <path d="M 128 90 Q 132 104 129 116" stroke="#c27a3a" stroke-width="2.2" stroke-linecap="round" fill="none"/>

    <g>
      <rect x="90" y="125" width="9" height="28" rx="4" fill="#e89b5a">
        <animateTransform attributeName="transform" type="rotate"
                          values="22 94 127; -18 94 127; 22 94 127"
                          calcMode="spline"
                          keySplines="0.37 0 0.63 1; 0.37 0 0.63 1"
                          keyTimes="0;0.5;1" dur="0.7s" repeatCount="indefinite"/>
      </rect>
      <rect x="118" y="125" width="9" height="28" rx="4" fill="#e89b5a">
        <animateTransform attributeName="transform" type="rotate"
                          values="-18 122 127; 22 122 127; -18 122 127"
                          calcMode="spline"
                          keySplines="0.37 0 0.63 1; 0.37 0 0.63 1"
                          keyTimes="0;0.5;1" dur="0.7s" repeatCount="indefinite"/>
      </rect>
    </g>

    <path d="M 55 110 Q 40 90 45 70 Q 52 55 62 55" stroke="#e89b5a" stroke-width="8"
          fill="none" stroke-linecap="round">
      <animate attributeName="d"
               values="M 55 110 Q 40 90 45 70 Q 52 55 62 55;
                       M 55 110 Q 35 95 30 75 Q 28 58 38 52;
                       M 55 110 Q 40 90 45 70 Q 52 55 62 55;
                       M 55 110 Q 45 88 55 68 Q 62 50 72 52;
                       M 55 110 Q 40 90 45 70 Q 52 55 62 55"
               calcMode="spline"
               keySplines="0.42 0 0.58 1; 0.42 0 0.58 1; 0.42 0 0.58 1; 0.42 0 0.58 1"
               keyTimes="0;0.25;0.5;0.75;1" dur="2.4s" repeatCount="indefinite"/>
    </path>

    <g>
      <animateTransform attributeName="transform" type="translate"
                        values="0 0; 1.5 -0.5; -1.5 -0.5; 0 0"
                        calcMode="spline"
                        keySplines="0.42 0 0.58 1; 0.42 0 0.58 1; 0.42 0 0.58 1"
                        keyTimes="0;0.3;0.7;1" dur="4s" repeatCount="indefinite"/>

      <path d="M 165 100 Q 165 65 185 45 Q 192 42 192 50 Q 188 70 178 95" fill="#f4a86b"/>
      <path d="M 170 88 Q 172 60 188 48 Q 190 52 187 62 Q 180 82 174 92" fill="#ff8da8" opacity="0.5"/>

      <g>
        <animateTransform attributeName="transform" type="rotate"
                          values="0 185 45; -6 185 45; 0 185 45"
                          calcMode="spline"
                          keySplines="0.42 0 0.58 1; 0.42 0 0.58 1"
                          keyTimes="0;0.5;1" dur="3.2s" repeatCount="indefinite"/>
        <path d="M 165 100 Q 165 65 185 45 Q 192 42 192 50 Q 188 70 178 95" fill="none"/>
      </g>

      <path d="M 115 68 Q 115 40 100 22 Q 92 22 94 35 Q 98 55 108 70 Z" fill="#f4a86b">
        <animateTransform attributeName="transform" type="rotate"
                          values="0 108 60; -4 108 60; 0 108 60"
                          calcMode="spline"
                          keySplines="0.42 0 0.58 1; 0.42 0 0.58 1"
                          keyTimes="0;0.5;1" dur="2.8s" repeatCount="indefinite"/>
      </path>
      <path d="M 128 70 Q 128 40 143 22 Q 151 22 149 35 Q 145 55 135 72 Z" fill="#f4a86b">
        <animateTransform attributeName="transform" type="rotate"
                          values="0 135 60; 4 135 60; 0 135 60"
                          calcMode="spline"
                          keySplines="0.42 0 0.58 1; 0.42 0 0.58 1"
                          keyTimes="0;0.5;1" dur="2.8s" begin="0.4s" repeatCount="indefinite"/>
      </path>
      <path d="M 100 35 Q 98 26 104 30 Q 108 40 110 55 Q 104 50 100 35 Z" fill="#ff8da8" opacity="0.7"/>
      <path d="M 143 35 Q 145 26 139 30 Q 135 40 133 55 Q 139 50 143 35 Z" fill="#ff8da8" opacity="0.7"/>

      <circle cx="122" cy="70" r="32" fill="#f4a86b"/>
      <ellipse cx="122" cy="82" rx="22" ry="15" fill="#fac28f"/>

      <path d="M 105 56 Q 110 64 105 72" stroke="#c27a3a" stroke-width="1.6" stroke-linecap="round" fill="none"/>
      <path d="M 139 56 Q 134 64 139 72" stroke="#c27a3a" stroke-width="1.6" stroke-linecap="round" fill="none"/>

      <g>
        <ellipse cx="111" cy="70" rx="5.5" ry="7" fill="#fafafa"/>
        <ellipse cx="133" cy="70" rx="5.5" ry="7" fill="#fafafa"/>

        <ellipse cx="111" cy="70" rx="3" ry="6" fill="#3a7c3a">
          <animate attributeName="ry" values="6;6;6;6;6;0.3;6;6"
                   calcMode="spline"
                   keySplines="0.42 0 0.58 1; 0.42 0 0.58 1; 0.42 0 0.58 1; 0.42 0 0.58 1; 0.12 0 0.39 0; 0.61 1 0.88 1; 0.42 0 0.58 1"
                   keyTimes="0;0.3;0.6;0.85;0.92;0.94;0.97;1"
                   dur="4.5s" repeatCount="indefinite"/>
        </ellipse>
        <ellipse cx="133" cy="70" rx="3" ry="6" fill="#3a7c3a">
          <animate attributeName="ry" values="6;6;6;6;6;0.3;6;6"
                   calcMode="spline"
                   keySplines="0.42 0 0.58 1; 0.42 0 0.58 1; 0.42 0 0.58 1; 0.42 0 0.58 1; 0.12 0 0.39 0; 0.61 1 0.88 1; 0.42 0 0.58 1"
                   keyTimes="0;0.3;0.6;0.85;0.92;0.94;0.97;1"
                   dur="4.5s" repeatCount="indefinite"/>
        </ellipse>
        <ellipse cx="111" cy="70" rx="1.3" ry="4.5" fill="#1a1a1a">
          <animate attributeName="ry" values="4.5;4.5;4.5;4.5;4.5;0.2;4.5;4.5"
                   calcMode="spline"
                   keySplines="0.42 0 0.58 1; 0.42 0 0.58 1; 0.42 0 0.58 1; 0.42 0 0.58 1; 0.12 0 0.39 0; 0.61 1 0.88 1; 0.42 0 0.58 1"
                   keyTimes="0;0.3;0.6;0.85;0.92;0.94;0.97;1"
                   dur="4.5s" repeatCount="indefinite"/>
        </ellipse>
        <ellipse cx="133" cy="70" rx="1.3" ry="4.5" fill="#1a1a1a">
          <animate attributeName="ry" values="4.5;4.5;4.5;4.5;4.5;0.2;4.5;4.5"
                   calcMode="spline"
                   keySplines="0.42 0 0.58 1; 0.42 0 0.58 1; 0.42 0 0.58 1; 0.42 0 0.58 1; 0.12 0 0.39 0; 0.61 1 0.88 1; 0.42 0 0.58 1"
                   keyTimes="0;0.3;0.6;0.85;0.92;0.94;0.97;1"
                   dur="4.5s" repeatCount="indefinite"/>
        </ellipse>
        <circle cx="112" cy="68" r="1" fill="#fafafa"/>
        <circle cx="134" cy="68" r="1" fill="#fafafa"/>
      </g>

      <path d="M 118 86 L 126 86 L 122 90 Z" fill="#e05a85"/>
      <path d="M 122 90 Q 118 94 114 92" stroke="#6b3a1a" stroke-width="1.2" fill="none" stroke-linecap="round"/>
      <path d="M 122 90 Q 126 94 130 92" stroke="#6b3a1a" stroke-width="1.2" fill="none" stroke-linecap="round"/>

      <g>
        <animateTransform attributeName="transform" type="rotate"
                          values="0 122 86; 0 122 86; 0 122 86; -3 122 86; 2 122 86; 0 122 86"
                          calcMode="spline"
                          keySplines="0.42 0 0.58 1; 0.42 0 0.58 1; 0.12 0 0.39 0; 0.61 1 0.88 1; 0.42 0 0.58 1"
                          keyTimes="0;0.85;0.9;0.93;0.96;1"
                          dur="4.5s" repeatCount="indefinite"/>
        <line x1="92" y1="80" x2="110" y2="84" stroke="#6b3a1a" stroke-width="0.8" stroke-linecap="round"/>
        <line x1="92" y1="86" x2="110" y2="88" stroke="#6b3a1a" stroke-width="0.8" stroke-linecap="round"/>
        <line x1="134" y1="84" x2="152" y2="80" stroke="#6b3a1a" stroke-width="0.8" stroke-linecap="round"/>
        <line x1="134" y1="88" x2="152" y2="86" stroke="#6b3a1a" stroke-width="0.8" stroke-linecap="round"/>
      </g>
    </g>

    <path d="M 80 115 Q 110 125 140 115 L 140 122 Q 110 132 80 122 Z" fill="#c03838"/>
    <circle cx="110" cy="124" r="5" fill="#ffd93f" stroke="#d9a830" stroke-width="0.8"/>
    <text x="110" y="127" font-size="5" text-anchor="middle" fill="#8b6d1f" font-family="Georgia, serif" font-weight="bold">m</text>
  </g>
</svg>
