<?xml version="1.0" encoding="UTF-8"?>
<svg xmlns="http://www.w3.org/2000/svg" viewBox="0 0 200 220" width="200" role="img" aria-label="a gray tabby cat sitting upright, tail curled and flicking, ears twitching asymmetrically, blinking smoothly, wearing a blue collar with a silver bell">

  <ellipse cx="100" cy="206" rx="55" ry="4" fill="#1a1a1a" opacity="0.15"/>

  <path d="M 55 200 Q 50 150 65 115 Q 80 95 100 95 Q 120 95 135 115 Q 150 150 145 200 Z" fill="#a9a9a9"/>
  <path d="M 68 198 Q 65 160 78 130 Q 92 115 100 115 Q 108 115 122 130 Q 135 160 132 198 Z" fill="#c0c0c0" opacity="0.9"/>

  <path d="M 78 155 Q 82 175 80 195" stroke="#7a7a7a" stroke-width="2.2" stroke-linecap="round" fill="none"/>
  <path d="M 100 150 Q 104 175 100 200" stroke="#7a7a7a" stroke-width="2.2" stroke-linecap="round" fill="none"/>
  <path d="M 122 155 Q 118 175 120 195" stroke="#7a7a7a" stroke-width="2.2" stroke-linecap="round" fill="none"/>

  <ellipse cx="78" cy="202" rx="14" ry="8" fill="#a9a9a9"/>
  <ellipse cx="122" cy="202" rx="14" ry="8" fill="#a9a9a9"/>

  <path d="M 145 195 Q 175 175 178 140 Q 178 115 165 108 Q 158 112 160 125 Q 163 140 155 160 Q 150 175 140 190 Z" fill="#a9a9a9">
    <animateTransform attributeName="transform" type="rotate"
                      values="0 160 180; 6 160 180; 0 160 180; -6 160 180; 0 160 180"
                      calcMode="spline"
                      keySplines="0.42 0 0.58 1; 0.42 0 0.58 1; 0.42 0 0.58 1; 0.42 0 0.58 1"
                      keyTimes="0;0.25;0.5;0.75;1" dur="3.6s" repeatCount="indefinite"/>
  </path>
  <path d="M 148 190 Q 170 170 172 140" stroke="#7a7a7a" stroke-width="1.4" fill="none" opacity="0.6"/>

  <g>
    <animateTransform attributeName="transform" type="translate"
                      values="0 0; 1 -0.5; -1 -0.5; 0 0"
                      calcMode="spline"
                      keySplines="0.42 0 0.58 1; 0.42 0 0.58 1; 0.42 0 0.58 1"
                      keyTimes="0;0.3;0.7;1" dur="5s" repeatCount="indefinite"/>

    <path d="M 82 62 Q 82 32 68 14 Q 60 14 62 28 Q 66 48 75 65 Z" fill="#a9a9a9">
      <animateTransform attributeName="transform" type="rotate"
                        values="0 75 55; -6 75 55; 0 75 55; -3 75 55; 0 75 55"
                        calcMode="spline"
                        keySplines="0.42 0 0.58 1; 0.42 0 0.58 1; 0.42 0 0.58 1; 0.42 0 0.58 1"
                        keyTimes="0;0.22;0.44;0.66;1" dur="3.1s" repeatCount="indefinite"/>
    </path>
    <path d="M 118 62 Q 118 32 132 14 Q 140 14 138 28 Q 134 48 125 65 Z" fill="#a9a9a9">
      <animateTransform attributeName="transform" type="rotate"
                        values="0 125 55; 4 125 55; 0 125 55; 7 125 55; 0 125 55"
                        calcMode="spline"
                        keySplines="0.42 0 0.58 1; 0.42 0 0.58 1; 0.42 0 0.58 1; 0.42 0 0.58 1"
                        keyTimes="0;0.3;0.55;0.78;1" dur="3.7s" repeatCount="indefinite"/>
    </path>
    <path d="M 68 28 Q 66 18 73 22 Q 77 32 80 48 Q 72 44 68 28 Z" fill="#ff8da8" opacity="0.7"/>
    <path d="M 132 28 Q 134 18 127 22 Q 123 32 120 48 Q 128 44 132 28 Z" fill="#ff8da8" opacity="0.7"/>

    <circle cx="100" cy="70" r="36" fill="#a9a9a9"/>
    <ellipse cx="100" cy="84" rx="24" ry="16" fill="#c5c5c5"/>

    <path d="M 82 52 Q 86 62 82 72" stroke="#7a7a7a" stroke-width="1.8" stroke-linecap="round" fill="none"/>
    <path d="M 118 52 Q 114 62 118 72" stroke="#7a7a7a" stroke-width="1.8" stroke-linecap="round" fill="none"/>

    <ellipse cx="88" cy="70" rx="6" ry="7.5" fill="#fafafa"/>
    <ellipse cx="112" cy="70" rx="6" ry="7.5" fill="#fafafa"/>

    <ellipse cx="88" cy="70" rx="3.2" ry="6.5" fill="#4a8ac0">
      <animate attributeName="ry" values="6.5;6.5;6.5;6.5;6.5;0.3;6.5;6.5"
               calcMode="spline"
               keySplines="0.42 0 0.58 1; 0.42 0 0.58 1; 0.42 0 0.58 1; 0.42 0 0.58 1; 0.12 0 0.39 0; 0.61 1 0.88 1; 0.42 0 0.58 1"
               keyTimes="0;0.3;0.6;0.85;0.91;0.93;0.96;1"
               dur="5.2s" repeatCount="indefinite"/>
    </ellipse>
    <ellipse cx="112" cy="70" rx="3.2" ry="6.5" fill="#4a8ac0">
      <animate attributeName="ry" values="6.5;6.5;6.5;6.5;6.5;0.3;6.5;6.5"
               calcMode="spline"
               keySplines="0.42 0 0.58 1; 0.42 0 0.58 1; 0.42 0 0.58 1; 0.42 0 0.58 1; 0.12 0 0.39 0; 0.61 1 0.88 1; 0.42 0 0.58 1"
               keyTimes="0;0.3;0.6;0.85;0.91;0.93;0.96;1"
               dur="5.2s" repeatCount="indefinite"/>
    </ellipse>
    <ellipse cx="88" cy="70" rx="1.4" ry="4.8" fill="#1a1a1a">
      <animate attributeName="ry" values="4.8;4.8;4.8;4.8;4.8;0.2;4.8;4.8"
               calcMode="spline"
               keySplines="0.42 0 0.58 1; 0.42 0 0.58 1; 0.42 0 0.58 1; 0.42 0 0.58 1; 0.12 0 0.39 0; 0.61 1 0.88 1; 0.42 0 0.58 1"
               keyTimes="0;0.3;0.6;0.85;0.91;0.93;0.96;1"
               dur="5.2s" repeatCount="indefinite"/>
    </ellipse>
    <ellipse cx="112" cy="70" rx="1.4" ry="4.8" fill="#1a1a1a">
      <animate attributeName="ry" values="4.8;4.8;4.8;4.8;4.8;0.2;4.8;4.8"
               calcMode="spline"
               keySplines="0.42 0 0.58 1; 0.42 0 0.58 1; 0.42 0 0.58 1; 0.42 0 0.58 1; 0.12 0 0.39 0; 0.61 1 0.88 1; 0.42 0 0.58 1"
               keyTimes="0;0.3;0.6;0.85;0.91;0.93;0.96;1"
               dur="5.2s" repeatCount="indefinite"/>
    </ellipse>
    <circle cx="89" cy="68" r="1.1" fill="#fafafa"/>
    <circle cx="113" cy="68" r="1.1" fill="#fafafa"/>

    <path d="M 96 88 L 104 88 L 100 93 Z" fill="#e05a85"/>
    <path d="M 100 93 Q 96 97 92 95" stroke="#4a4a4a" stroke-width="1.2" fill="none" stroke-linecap="round"/>
    <path d="M 100 93 Q 104 97 108 95" stroke="#4a4a4a" stroke-width="1.2" fill="none" stroke-linecap="round"/>

    <g>
      <animateTransform attributeName="transform" type="rotate"
                        values="0 100 88; 0 100 88; 0 100 88; -3 100 88; 2 100 88; 0 100 88"
                        calcMode="spline"
                        keySplines="0.42 0 0.58 1; 0.42 0 0.58 1; 0.12 0 0.39 0; 0.61 1 0.88 1; 0.42 0 0.58 1"
                        keyTimes="0;0.85;0.9;0.93;0.96;1"
                        dur="5.2s" repeatCount="indefinite"/>
      <line x1="68" y1="82" x2="88" y2="86" stroke="#4a4a4a" stroke-width="0.9" stroke-linecap="round"/>
      <line x1="68" y1="88" x2="88" y2="90" stroke="#4a4a4a" stroke-width="0.9" stroke-linecap="round"/>
      <line x1="112" y1="86" x2="132" y2="82" stroke="#4a4a4a" stroke-width="0.9" stroke-linecap="round"/>
      <line x1="112" y1="90" x2="132" y2="88" stroke="#4a4a4a" stroke-width="0.9" stroke-linecap="round"/>
    </g>
  </g>

  <path d="M 70 112 Q 100 122 130 112 L 130 120 Q 100 130 70 120 Z" fill="#2f7fc4"/>
  <circle cx="100" cy="122" r="5.5" fill="#d4d4d4" stroke="#888" stroke-width="0.8"/>
  <circle cx="100" cy="122" r="1.5" fill="#555"/>
</svg>
