<?xml version="1.0" encoding="UTF-8"?>
<svg xmlns="http://www.w3.org/2000/svg" viewBox="0 0 260 280" width="260" role="img" aria-label="a dapper white gentleman cat with a curly black mustache, top hat, and monocle, blinking politely">

  <ellipse cx="130" cy="268" rx="70" ry="5" fill="#000" opacity="0.12"/>

  <ellipse cx="130" cy="220" rx="60" ry="45" fill="#f5f5f5" stroke="#2a2a2a" stroke-width="1.5"/>
  <rect x="105" y="215" width="50" height="40" fill="#2a2a2a"/>
  <rect x="98" y="245" width="64" height="6" fill="#b8963a"/>

  <ellipse cx="95" cy="260" rx="14" ry="8" fill="#f5f5f5" stroke="#2a2a2a" stroke-width="1.5"/>
  <ellipse cx="165" cy="260" rx="14" ry="8" fill="#f5f5f5" stroke="#2a2a2a" stroke-width="1.5">
    <animate attributeName="cy" values="260;258;260;260;260;258;260" keyTimes="0;0.15;0.22;0.45;0.6;0.65;1" dur="6s" repeatCount="indefinite"/>
  </ellipse>

  <path d="M 188 210 Q 220 190 225 155" stroke="#f5f5f5" stroke-width="12" fill="none" stroke-linecap="round" stroke-linejoin="round"/>
  <path d="M 188 210 Q 220 190 225 155" stroke="#2a2a2a" stroke-width="1.5" fill="none" stroke-linecap="round" stroke-linejoin="round" opacity="0.6">
    <animateTransform attributeName="transform" type="rotate" values="0 188 210; 10 188 210; 0 188 210; -8 188 210; 0 188 210" dur="3.3s" repeatCount="indefinite"/>
  </path>

  <circle cx="130" cy="150" r="50" fill="#f5f5f5" stroke="#2a2a2a" stroke-width="1.5"/>

  <path d="M 88 130 Q 82 98 105 125" fill="#f5f5f5" stroke="#2a2a2a" stroke-width="1.5"/>
  <path d="M 172 130 Q 178 98 155 125" fill="#f5f5f5" stroke="#2a2a2a" stroke-width="1.5"/>
  <path d="M 93 122 Q 91 108 101 123" fill="#d4a5a5"/>
  <path d="M 167 122 Q 169 108 159 123" fill="#d4a5a5"/>

  <path d="M 78 95 Q 130 25 182 95 L 182 80 Q 175 78 170 80 L 170 55 Q 130 35 90 55 L 90 80 Q 85 78 78 80 Z" fill="#1a1a1a"/>
  <rect x="70" y="90" width="120" height="10" rx="2" fill="#1a1a1a"/>
  <rect x="75" y="94" width="110" height="4" fill="#8b3030"/>

  <ellipse cx="112" cy="150" rx="10" ry="12" fill="#fafafa"/>
  <ellipse cx="148" cy="150" rx="10" ry="12" fill="#fafafa"/>

  <circle cx="148" cy="150" r="16" fill="none" stroke="#b8963a" stroke-width="2"/>
  <path d="M 164 150 Q 175 152 178 160" stroke="#b8963a" stroke-width="1.5" fill="none"/>

  <ellipse cx="112" cy="150" rx="4" ry="9" fill="#4a8ac0">
    <animate attributeName="ry" values="9;9;9;0.4;9;9;9;9" keyTimes="0;0.3;0.65;0.7;0.75;0.95;0.97;1" dur="7s" repeatCount="indefinite"/>
  </ellipse>
  <ellipse cx="148" cy="150" rx="4" ry="9" fill="#4a8ac0">
    <animate attributeName="ry" values="9;9;9;0.4;9;9;9;9" keyTimes="0;0.3;0.65;0.7;0.75;0.95;0.97;1" dur="7s" repeatCount="indefinite"/>
  </ellipse>
  <ellipse cx="112" cy="150" rx="1.5" ry="7" fill="#1a1a1a">
    <animate attributeName="ry" values="7;7;7;0.2;7;7;7;7" keyTimes="0;0.3;0.65;0.7;0.75;0.95;0.97;1" dur="7s" repeatCount="indefinite"/>
  </ellipse>
  <ellipse cx="148" cy="150" rx="1.5" ry="7" fill="#1a1a1a">
    <animate attributeName="ry" values="7;7;7;0.2;7;7;7;7" keyTimes="0;0.3;0.65;0.7;0.75;0.95;0.97;1" dur="7s" repeatCount="indefinite"/>
  </ellipse>
  <circle cx="113" cy="147" r="1.2" fill="#fafafa"/>
  <circle cx="149" cy="147" r="1.2" fill="#fafafa"/>

  <polygon points="126,168 134,168 130,173" fill="#d4a5a5"/>

  <g>
    <animateTransform attributeName="transform" type="rotate" values="0 130 178; 2 130 178; 0 130 178; -2 130 178; 0 130 178" dur="4s" repeatCount="indefinite"/>
    <path d="M 95 178 Q 105 172 115 176 Q 122 180 130 178 Q 138 180 145 176 Q 155 172 165 178 Q 158 184 148 182 Q 138 181 130 184 Q 122 181 112 182 Q 102 184 95 178 Z" fill="#1a1a1a"/>
    <path d="M 95 178 Q 88 172 84 178 Q 88 184 95 178 Z" fill="#1a1a1a"/>
    <path d="M 165 178 Q 172 172 176 178 Q 172 184 165 178 Z" fill="#1a1a1a"/>
  </g>

  <path d="M 130 186 Q 125 192 118 189" stroke="#2a2a2a" stroke-width="1.2" fill="none"/>
  <path d="M 130 186 Q 135 192 142 189" stroke="#2a2a2a" stroke-width="1.2" fill="none"/>

  <line x1="82" y1="158" x2="112" y2="162" stroke="#2a2a2a" stroke-width="0.8"/>
  <line x1="82" y1="165" x2="112" y2="167" stroke="#2a2a2a" stroke-width="0.8"/>
  <line x1="148" y1="162" x2="178" y2="158" stroke="#2a2a2a" stroke-width="0.8"/>
  <line x1="148" y1="167" x2="178" y2="165" stroke="#2a2a2a" stroke-width="0.8"/>
</svg>
