<?xml version="1.0" encoding="UTF-8"?>
<svg xmlns="http://www.w3.org/2000/svg" viewBox="0 0 300 80" width="300" height="80" role="img" aria-label="gray tabby cat walking">
<style>
.g{animation:bob .6s ease-in-out infinite}
.la{animation:la .6s ease-in-out infinite}
.lb{animation:lb .6s ease-in-out infinite}
.tw{animation:wag 1.8s ease-in-out infinite;transform-box:fill-box;transform-origin:90% 85%}
.bl{animation:bl 4s ease-in-out infinite;transform-box:fill-box;transform-origin:50% 50%}
@keyframes bob{0%,100%{transform:translateY(0)}50%{transform:translateY(-2px)}}
@keyframes la{0%,100%{transform:translateY(-7px)}50%{transform:translateY(0)}}
@keyframes lb{0%,100%{transform:translateY(0)}50%{transform:translateY(-7px)}}
@keyframes wag{0%,100%{transform:rotate(0deg)}50%{transform:rotate(22deg)}}
@keyframes bl{0%,87%,100%{transform:scaleY(1)}91%{transform:scaleY(.05)}}
</style>
<g class="g">
  <g class="tw">
    <path d="M57,49 Q40,41 30,26 Q20,12 28,7 Q36,3 40,15 Q44,27 57,45"
          stroke="#a8b0b8" stroke-width="14" fill="none" stroke-linecap="round"/>
    <path d="M57,49 Q40,41 30,26 Q20,12 28,7 Q36,3 40,15 Q44,27 57,45"
          stroke="#7888a0" stroke-width="5" fill="none" stroke-linecap="round" opacity=".45"/>
  </g>
  <rect class="lb" x="78" y="63" width="14" height="16" rx="7" fill="#7888a0"/>
  <rect class="la" x="96" y="63" width="14" height="16" rx="7" fill="#8898b0"/>
  <ellipse cx="148" cy="52" rx="94" ry="22" fill="#a8b0b8"/>
  <ellipse cx="148" cy="61" rx="68" ry="12" fill="#7888a0" opacity=".25"/>
  <path d="M90,32 C91,45 91,57 90,67" stroke="#7888a0" stroke-width="3.5" fill="none" stroke-linecap="round"/>
  <path d="M120,30 C121,45 121,59 120,69" stroke="#7888a0" stroke-width="3.5" fill="none" stroke-linecap="round"/>
  <path d="M150,30 C151,45 151,59 150,69" stroke="#7888a0" stroke-width="3.5" fill="none" stroke-linecap="round"/>
  <rect class="la" x="188" y="63" width="14" height="16" rx="7" fill="#a8b0b8"/>
  <rect class="lb" x="206" y="63" width="14" height="16" rx="7" fill="#98a8b8"/>
  <ellipse cx="226" cy="46" rx="16" ry="20" fill="#a8b0b8"/>
  <polygon points="238,28 244,7 261,25" fill="#a8b0b8"/>
  <polygon points="240,27 246,13 259,25" fill="#c8a0b0"/>
  <polygon points="255,25 261,8 272,24" fill="#a8b0b8"/>
  <polygon points="257,25 262,14 270,24" fill="#c8a0b0"/>
  <circle cx="259" cy="31" r="28" fill="#a8b0b8"/>
  <ellipse cx="276" cy="38" rx="14" ry="11" fill="#c8d0d8"/>
  <circle cx="250" cy="22" r="10" fill="white"/>
  <circle cx="250" cy="22" r="6.5" fill="#4a90c0" class="bl"/>
  <circle cx="250" cy="22" r="3" fill="#111" class="bl"/>
  <circle cx="247" cy="19" r="1.8" fill="white"/>
  <ellipse cx="274" cy="35" rx="4" ry="3" fill="#d08090"/>
  <path d="M271,37 Q268,41 266,40" stroke="#907080" stroke-width="1.5" fill="none" stroke-linecap="round"/>
  <path d="M277,37 Q280,41 282,40" stroke="#907080" stroke-width="1.5" fill="none" stroke-linecap="round"/>
  <line x1="265" y1="36" x2="298" y2="32" stroke="#7888a0" stroke-width="1.2" stroke-linecap="round" opacity=".7"/>
  <line x1="265" y1="39" x2="298" y2="39" stroke="#7888a0" stroke-width="1.2" stroke-linecap="round" opacity=".7"/>
</g>
</svg>
