<?xml version="1.0" encoding="UTF-8"?>
<svg xmlns="http://www.w3.org/2000/svg" viewBox="0 0 160 64" width="160" height="64"
     role="img" aria-label="blue-gray cat stalking low">
  <g>
    <animateTransform attributeName="transform" type="translate"
      values="0,0; 0,-1; 0,0; 0,-1; 0,0" dur="1.4s" repeatCount="indefinite"
      calcMode="spline" keyTimes="0;0.25;0.5;0.75;1"
      keySplines="0.42 0 0.58 1; 0.42 0 0.58 1; 0.42 0 0.58 1; 0.42 0 0.58 1"/>
    <!-- tail flat/back -->
    <g>
      <animateTransform attributeName="transform" type="rotate"
        values="0 32 40; 8 32 40; 0 32 40" dur="2.8s" repeatCount="indefinite"
        calcMode="spline" keyTimes="0;0.5;1"
        keySplines="0.42 0 0.58 1; 0.42 0 0.58 1"/>
      <path d="M34,40 Q18,38 10,30 Q4,22 10,20 Q16,18 18,28 Q20,36 34,38"
            stroke="#7888a0" stroke-width="9" fill="none" stroke-linecap="round"/>
      <path d="M34,40 Q18,38 10,30 Q4,22 10,20 Q16,18 18,28 Q20,36 34,38"
            stroke="#566878" stroke-width="3.5" fill="none" stroke-linecap="round" opacity="0.4"/>
    </g>
    <!-- low crouching legs -->
    <rect x="44" y="52" width="10" height="11" rx="5" fill="#566878">
      <animate attributeName="y" values="52;47;52" dur="1.4s" repeatCount="indefinite"
               calcMode="spline" keyTimes="0;0.5;1"
               keySplines="0.42 0 0.58 1; 0.42 0 0.58 1"/>
    </rect>
    <rect x="56" y="47" width="10" height="11" rx="5" fill="#6878a0">
      <animate attributeName="y" values="47;52;47" dur="1.4s" repeatCount="indefinite"
               calcMode="spline" keyTimes="0;0.5;1"
               keySplines="0.42 0 0.58 1; 0.42 0 0.58 1"/>
    </rect>
    <!-- body low/elongated -->
    <ellipse cx="80" cy="42" rx="52" ry="16" fill="#7888a0"/>
    <ellipse cx="80" cy="48" rx="38" ry="9" fill="#566878" opacity="0.22"/>
    <path d="M50,28 C51,37 51,47 50,55" stroke="#566878" stroke-width="2.5"
          fill="none" stroke-linecap="round"/>
    <path d="M68,26 C69,37 69,49 68,57" stroke="#566878" stroke-width="2.5"
          fill="none" stroke-linecap="round"/>
    <path d="M86,26 C87,37 87,49 86,57" stroke="#566878" stroke-width="2.5"
          fill="none" stroke-linecap="round"/>
    <rect x="104" y="47" width="10" height="11" rx="5" fill="#566878">
      <animate attributeName="y" values="47;52;47" dur="1.4s" repeatCount="indefinite"
               calcMode="spline" keyTimes="0;0.5;1"
               keySplines="0.42 0 0.58 1; 0.42 0 0.58 1"/>
    </rect>
    <rect x="116" y="52" width="10" height="11" rx="5" fill="#6878a0">
      <animate attributeName="y" values="52;47;52" dur="1.4s" repeatCount="indefinite"
               calcMode="spline" keyTimes="0;0.5;1"
               keySplines="0.42 0 0.58 1; 0.42 0 0.58 1"/>
    </rect>
    <ellipse cx="122" cy="37" rx="10" ry="13" fill="#7888a0"/>
    <polygon points="118,21 122,4 136,19" fill="#7888a0"/>
    <polygon points="120,20 123,9 134,19" fill="#b890a0"/>
    <polygon points="132,19 136,4 146,19" fill="#7888a0"/>
    <polygon points="133,19 137,9 144,19" fill="#b890a0"/>
    <circle cx="136" cy="23" r="20" fill="#7888a0"/>
    <ellipse cx="148" cy="29" rx="9" ry="7" fill="#98a8b8"/>
    <circle cx="130" cy="17" r="8" fill="white"/>
    <ellipse cx="130" cy="17" rx="5.5" ry="5.5" fill="#28b8a8">
      <animate attributeName="ry" values="5.5;5.5;5.5;0.3;5.5"
               keyTimes="0;0.82;0.9;0.93;1" calcMode="spline"
               keySplines="0.42 0 0.58 1; 0.42 0 0.58 1; 0.12 0 0.39 0; 0.61 1 0.88 1"
               dur="5s" repeatCount="indefinite"/>
    </ellipse>
    <ellipse cx="130" cy="17" rx="2" ry="4" fill="#111">
      <animate attributeName="ry" values="4;4;4;0.2;4"
               keyTimes="0;0.82;0.9;0.93;1" calcMode="spline"
               keySplines="0.42 0 0.58 1; 0.42 0 0.58 1; 0.12 0 0.39 0; 0.61 1 0.88 1"
               dur="5s" repeatCount="indefinite"/>
    </ellipse>
    <circle cx="127" cy="14" r="1.5" fill="white"/>
    <ellipse cx="147" cy="27" rx="2.5" ry="2" fill="#c07080"/>
    <path d="M145,29 Q143,32 141,31" stroke="#807090" stroke-width="1.2"
          fill="none" stroke-linecap="round"/>
    <path d="M149,29 Q151,32 153,31" stroke="#807090" stroke-width="1.2"
          fill="none" stroke-linecap="round"/>
    <line x1="142" y1="27" x2="159" y2="24" stroke="#566878" stroke-width="1"
          stroke-linecap="round" opacity="0.7"/>
    <line x1="142" y1="29" x2="159" y2="30" stroke="#566878" stroke-width="1"
          stroke-linecap="round" opacity="0.7"/>
  </g>
</svg>
